G04*
G04 #@! TF.GenerationSoftware,Altium Limited,Altium Designer,22.5.1 (42)*
G04*
G04 Layer_Color=16711935*
%FSLAX25Y25*%
%MOIN*%
G70*
G04*
G04 #@! TF.SameCoordinates,9CEDE495-3556-4083-ABEA-689295A2F9E5*
G04*
G04*
G04 #@! TF.FilePolarity,Positive*
G04*
G01*
G75*
%ADD10C,0.01000*%
D10*
X165098Y127974D02*
X164125Y127820D01*
X163247Y127372D01*
X162550Y126676D01*
X162103Y125798D01*
X161949Y124824D01*
X193051D02*
X192897Y125798D01*
X192450Y126676D01*
X191753Y127372D01*
X190875Y127820D01*
X189902Y127974D01*
X161925Y106299D02*
X161949Y106323D01*
X165087Y127976D02*
X164117Y127823D01*
X163242Y127377D01*
X162548Y126683D01*
X162102Y125808D01*
X161949Y124838D01*
X193051Y124824D02*
X192897Y125798D01*
X192449Y126677D01*
X191752Y127374D01*
X190873Y127822D01*
X189899Y127976D01*
X193051Y106323D02*
X193075Y106299D01*
X196850Y106299D02*
X197852Y106305D01*
X198854Y106321D01*
X199855Y106349D01*
X200856Y106388D01*
X201856Y106438D01*
X202856Y106499D01*
X203855Y106570D01*
X204853Y106653D01*
X205850Y106747D01*
X206846Y106853D01*
X207841Y106969D01*
X208835Y107096D01*
X209827Y107234D01*
X210818Y107383D01*
X211806Y107543D01*
X212793Y107714D01*
X213778Y107896D01*
X214761Y108088D01*
X215742Y108292D01*
X216720Y108506D01*
X217696Y108731D01*
X218670Y108967D01*
X219641Y109214D01*
X220609Y109471D01*
X221574Y109740D01*
X222536Y110018D01*
X223495Y110308D01*
X224450Y110608D01*
X225403Y110918D01*
X226351Y111240D01*
X227297Y111571D01*
X228238Y111913D01*
X229176Y112266D01*
X230109Y112628D01*
X231039Y113001D01*
X231964Y113385D01*
X232885Y113778D01*
X233802Y114182D01*
X234714Y114596D01*
X235622Y115020D01*
X236525Y115453D01*
X237423Y115897D01*
X238316Y116351D01*
X239203Y116814D01*
X240086Y117288D01*
X240964Y117771D01*
X241836Y118264D01*
X242702Y118766D01*
X243563Y119278D01*
X244418Y119800D01*
X245268Y120331D01*
X246111Y120871D01*
X246949Y121420D01*
X247780Y121979D01*
X248605Y122547D01*
X249424Y123124D01*
X250236Y123710D01*
X251042Y124305D01*
X251841Y124909D01*
X252633Y125522D01*
X253419Y126143D01*
X254198Y126773D01*
X254969Y127412D01*
X255734Y128059D01*
X256491Y128714D01*
X257241Y129378D01*
X257984Y130050D01*
X258719Y130731D01*
X259447Y131419D01*
X260167Y132116D01*
X260879Y132820D01*
X261583Y133532D01*
X262279Y134252D01*
X262968Y134979D01*
X263648Y135715D01*
X264320Y136457D01*
X264984Y137207D01*
X265640Y137965D01*
X266287Y138729D01*
X266926Y139501D01*
X267556Y140279D01*
X268177Y141065D01*
X268790Y141857D01*
X269394Y142657D01*
X269989Y143462D01*
X270575Y144274D01*
X271152Y145093D01*
X271720Y145918D01*
X272279Y146750D01*
X272828Y147587D01*
X273369Y148430D01*
X273900Y149280D01*
X274421Y150135D01*
X274933Y150996D01*
X275435Y151862D01*
X275928Y152734D01*
X276411Y153612D01*
X276885Y154495D01*
X277348Y155383D01*
X277802Y156275D01*
X278246Y157173D01*
X278680Y158076D01*
X279104Y158984D01*
X279518Y159896D01*
X279921Y160812D01*
X280315Y161734D01*
X280698Y162659D01*
X281071Y163589D01*
X281434Y164522D01*
X281786Y165460D01*
X282129Y166401D01*
X282460Y167346D01*
X282781Y168295D01*
X283092Y169247D01*
X283392Y170203D01*
X283681Y171162D01*
X283960Y172124D01*
X284228Y173089D01*
X284486Y174057D01*
X284733Y175028D01*
X284969Y176001D01*
X285194Y176977D01*
X285408Y177956D01*
X285612Y178937D01*
X285805Y179919D01*
X285986Y180904D01*
X286157Y181891D01*
X286317Y182880D01*
X286467Y183871D01*
X286605Y184863D01*
X286732Y185856D01*
X286848Y186851D01*
X286953Y187847D01*
X287047Y188845D01*
X287130Y189843D01*
X287202Y190842D01*
X287263Y191842D01*
X287313Y192842D01*
X287352Y193843D01*
X287379Y194844D01*
X287396Y195846D01*
X287402Y196847D01*
X287396Y197849D01*
X287380Y198850D01*
X287352Y199852D01*
X287313Y200852D01*
X287263Y201853D01*
X287202Y202853D01*
X287130Y203852D01*
X287048Y204850D01*
X286953Y205847D01*
X286848Y206843D01*
X286732Y207838D01*
X286605Y208832D01*
X286467Y209824D01*
X286318Y210814D01*
X286158Y211803D01*
X285988Y212790D01*
X285806Y213775D01*
X285613Y214758D01*
X285410Y215739D01*
X285195Y216717D01*
X284970Y217693D01*
X284734Y218667D01*
X284488Y219638D01*
X284230Y220606D01*
X283962Y221571D01*
X283683Y222533D01*
X283394Y223492D01*
X283094Y224447D01*
X282783Y225400D01*
X282462Y226348D01*
X282131Y227294D01*
X281789Y228235D01*
X281436Y229173D01*
X281074Y230106D01*
X280701Y231036D01*
X280317Y231961D01*
X279924Y232882D01*
X279520Y233799D01*
X279106Y234711D01*
X278683Y235619D01*
X278249Y236522D01*
X277805Y237420D01*
X277351Y238313D01*
X276888Y239201D01*
X276414Y240083D01*
X275931Y240961D01*
X275438Y241833D01*
X274936Y242699D01*
X274424Y243560D01*
X273903Y244416D01*
X273372Y245265D01*
X272832Y246109D01*
X272282Y246946D01*
X271723Y247777D01*
X271156Y248602D01*
X270579Y249421D01*
X269992Y250233D01*
X269397Y251039D01*
X268794Y251838D01*
X268181Y252631D01*
X267560Y253416D01*
X266930Y254195D01*
X266291Y254967D01*
X265644Y255731D01*
X264988Y256489D01*
X264324Y257239D01*
X263652Y257981D01*
X262972Y258717D01*
X262284Y259444D01*
X261587Y260164D01*
X260883Y260876D01*
X260171Y261581D01*
X259451Y262277D01*
X258723Y262966D01*
X257988Y263646D01*
X257246Y264318D01*
X256496Y264982D01*
X255738Y265638D01*
X254974Y266285D01*
X254202Y266924D01*
X253424Y267554D01*
X252638Y268175D01*
X251846Y268788D01*
X251047Y269392D01*
X250241Y269987D01*
X249429Y270573D01*
X248610Y271150D01*
X247785Y271718D01*
X246954Y272277D01*
X246116Y272827D01*
X245273Y273367D01*
X244424Y273898D01*
X243568Y274419D01*
X242707Y274931D01*
X241841Y275434D01*
X240969Y275927D01*
X240092Y276410D01*
X239209Y276883D01*
X238321Y277347D01*
X237428Y277801D01*
X236530Y278245D01*
X235627Y278679D01*
X234720Y279102D01*
X233808Y279516D01*
X232891Y279920D01*
X231970Y280314D01*
X231045Y280697D01*
X230115Y281070D01*
X229181Y281433D01*
X228244Y281785D01*
X227302Y282127D01*
X226357Y282459D01*
X225409Y282780D01*
X224456Y283091D01*
X223501Y283391D01*
X222542Y283681D01*
X221580Y283959D01*
X220615Y284228D01*
X219647Y284485D01*
X218676Y284732D01*
X217702Y284968D01*
X216726Y285193D01*
X215748Y285408D01*
X214767Y285611D01*
X213784Y285804D01*
X212799Y285986D01*
X211812Y286157D01*
X210824Y286317D01*
X209833Y286466D01*
X208841Y286604D01*
X207847Y286731D01*
X206853Y286847D01*
X205856Y286952D01*
X204859Y287047D01*
X203861Y287130D01*
X202862Y287202D01*
X201862Y287263D01*
X200862Y287313D01*
X199861Y287351D01*
X198860Y287379D01*
X197858Y287396D01*
X196857Y287402D01*
X196850D01*
X159017Y287402D02*
X158016Y287396D01*
X157014Y287379D01*
X156013Y287352D01*
X155012Y287313D01*
X154011Y287263D01*
X153012Y287202D01*
X152013Y287130D01*
X151014Y287047D01*
X150017Y286953D01*
X149021Y286848D01*
X148026Y286732D01*
X147032Y286605D01*
X146040Y286467D01*
X145050Y286318D01*
X144061Y286158D01*
X143074Y285987D01*
X142089Y285805D01*
X141106Y285612D01*
X140125Y285409D01*
X139147Y285194D01*
X138171Y284969D01*
X137197Y284733D01*
X136226Y284487D01*
X135258Y284229D01*
X134293Y283961D01*
X133331Y283682D01*
X132372Y283393D01*
X131417Y283093D01*
X130464Y282782D01*
X129516Y282461D01*
X128570Y282129D01*
X127629Y281787D01*
X126691Y281435D01*
X125758Y281072D01*
X124828Y280699D01*
X123903Y280316D01*
X122982Y279922D01*
X122065Y279519D01*
X121153Y279105D01*
X120245Y278681D01*
X119342Y278247D01*
X118444Y277803D01*
X117551Y277349D01*
X116663Y276886D01*
X115781Y276412D01*
X114903Y275929D01*
X114031Y275436D01*
X113164Y274934D01*
X112304Y274422D01*
X111448Y273901D01*
X110599Y273370D01*
X109756Y272829D01*
X108918Y272280D01*
X108087Y271721D01*
X107262Y271153D01*
X106443Y270576D01*
X105631Y269990D01*
X104825Y269395D01*
X104026Y268791D01*
X103233Y268178D01*
X102448Y267557D01*
X101669Y266927D01*
X100897Y266288D01*
X100133Y265641D01*
X99375Y264985D01*
X98625Y264321D01*
X97883Y263649D01*
X97148Y262969D01*
X96420Y262280D01*
X95700Y261584D01*
X94988Y260880D01*
X94283Y260167D01*
X93587Y259448D01*
X92899Y258720D01*
X92218Y257985D01*
X91546Y257242D01*
X90882Y256492D01*
X90227Y255735D01*
X89579Y254970D01*
X88941Y254199D01*
X88311Y253420D01*
X87689Y252634D01*
X87077Y251842D01*
X86473Y251043D01*
X85878Y250237D01*
X85292Y249425D01*
X84715Y248606D01*
X84147Y247781D01*
X83588Y246949D01*
X83038Y246112D01*
X82498Y245268D01*
X81967Y244419D01*
X81446Y243564D01*
X80934Y242703D01*
X80431Y241836D01*
X79938Y240964D01*
X79455Y240087D01*
X78982Y239204D01*
X78518Y238316D01*
X78064Y237423D01*
X77621Y236525D01*
X77187Y235622D01*
X76763Y234715D01*
X76349Y233803D01*
X75945Y232886D01*
X75552Y231965D01*
X75168Y231039D01*
X74795Y230110D01*
X74433Y229176D01*
X74080Y228238D01*
X73738Y227297D01*
X73407Y226352D01*
X73086Y225403D01*
X72775Y224451D01*
X72475Y223495D01*
X72185Y222536D01*
X71907Y221574D01*
X71639Y220609D01*
X71381Y219641D01*
X71134Y218670D01*
X70898Y217696D01*
X70673Y216721D01*
X70459Y215742D01*
X70255Y214761D01*
X70063Y213778D01*
X69881Y212793D01*
X69710Y211806D01*
X69550Y210818D01*
X69401Y209827D01*
X69263Y208835D01*
X69136Y207841D01*
X69020Y206846D01*
X68915Y205850D01*
X68820Y204853D01*
X68737Y203855D01*
X68665Y202856D01*
X68605Y201856D01*
X68555Y200855D01*
X68516Y199855D01*
X68488Y198853D01*
X68472Y197852D01*
X68466Y196850D01*
X68472Y195848D01*
X68488Y194847D01*
X68516Y193846D01*
X68555Y192845D01*
X68605Y191844D01*
X68665Y190844D01*
X68738Y189845D01*
X68821Y188847D01*
X68915Y187850D01*
X69020Y186854D01*
X69136Y185859D01*
X69263Y184865D01*
X69401Y183873D01*
X69550Y182883D01*
X69710Y181894D01*
X69881Y180907D01*
X70063Y179922D01*
X70255Y178939D01*
X70459Y177958D01*
X70673Y176980D01*
X70898Y176004D01*
X71135Y175030D01*
X71381Y174059D01*
X71639Y173091D01*
X71907Y172126D01*
X72186Y171164D01*
X72475Y170205D01*
X72775Y169249D01*
X73086Y168297D01*
X73407Y167348D01*
X73738Y166403D01*
X74080Y165462D01*
X74433Y164524D01*
X74796Y163590D01*
X75169Y162661D01*
X75552Y161735D01*
X75946Y160814D01*
X76349Y159898D01*
X76763Y158985D01*
X77187Y158078D01*
X77621Y157175D01*
X78065Y156277D01*
X78518Y155384D01*
X78982Y154496D01*
X79456Y153613D01*
X79939Y152736D01*
X80431Y151864D01*
X80934Y150997D01*
X81446Y150136D01*
X81967Y149281D01*
X82498Y148432D01*
X83039Y147588D01*
X83588Y146751D01*
X84147Y145920D01*
X84715Y145095D01*
X85292Y144276D01*
X85878Y143463D01*
X86473Y142658D01*
X87077Y141858D01*
X87690Y141066D01*
X88311Y140280D01*
X88941Y139502D01*
X89580Y138730D01*
X90227Y137966D01*
X90883Y137208D01*
X91547Y136458D01*
X92219Y135716D01*
X92899Y134980D01*
X93587Y134253D01*
X94284Y133533D01*
X94988Y132821D01*
X95701Y132116D01*
X96421Y131420D01*
X97148Y130731D01*
X97883Y130051D01*
X98626Y129379D01*
X99376Y128715D01*
X100133Y128059D01*
X100898Y127412D01*
X101670Y126774D01*
X102448Y126144D01*
X103234Y125522D01*
X104026Y124909D01*
X104825Y124306D01*
X105631Y123711D01*
X106444Y123125D01*
X107262Y122547D01*
X108087Y121979D01*
X108919Y121421D01*
X109756Y120871D01*
X110600Y120331D01*
X111449Y119800D01*
X112304Y119279D01*
X113165Y118766D01*
X114032Y118264D01*
X114904Y117771D01*
X115781Y117288D01*
X116664Y116815D01*
X117552Y116351D01*
X118445Y115897D01*
X119343Y115454D01*
X120246Y115020D01*
X121153Y114596D01*
X122065Y114182D01*
X122982Y113778D01*
X123903Y113385D01*
X124829Y113001D01*
X125758Y112628D01*
X126692Y112266D01*
X127630Y111913D01*
X128571Y111571D01*
X129516Y111240D01*
X130465Y110918D01*
X131417Y110608D01*
X132373Y110308D01*
X133332Y110019D01*
X134294Y109740D01*
X135259Y109471D01*
X136227Y109214D01*
X137198Y108967D01*
X138172Y108731D01*
X139147Y108506D01*
X140126Y108292D01*
X141107Y108088D01*
X142090Y107896D01*
X143075Y107714D01*
X144062Y107543D01*
X145050Y107383D01*
X146041Y107234D01*
X147033Y107096D01*
X148027Y106969D01*
X149021Y106853D01*
X150017Y106748D01*
X151015Y106653D01*
X152013Y106570D01*
X153012Y106499D01*
X154012Y106438D01*
X155012Y106388D01*
X156013Y106349D01*
X157014Y106321D01*
X158016Y106305D01*
X159017Y106299D01*
X161949Y106323D02*
Y124824D01*
X193051Y106323D02*
Y124824D01*
X165087Y127976D02*
X189899D01*
X159017Y106299D02*
X161925D01*
X161949Y106323D02*
Y124838D01*
X165087Y127976D02*
X189899D01*
X193051Y106323D02*
Y124824D01*
X193075Y106299D02*
X196850D01*
X159017Y287402D02*
X196850D01*
M02*
